<svg xmlns="http://www.w3.org/2000/svg" width="207.431" height="61.535" viewBox="0 0 207.431 61.535">
  <g id="date" transform="translate(-399.989 -483.047)">
    <path id="Tracé_166" data-name="Tracé 166" d="M3.33-6.99a3.588,3.588,0,0,1,2.345.625,2.382,2.382,0,0,1,.735,1.92,2.275,2.275,0,0,1-.755,1.9,3.672,3.672,0,0,1-2.305.6H2.42V0H.86V-6.99ZM3.47-3.3a1.392,1.392,0,0,0,1.06-.315,1.344,1.344,0,0,0,.28-.92.975.975,0,0,0-.365-.86A2.006,2.006,0,0,0,3.31-5.65H2.42V-3.3ZM12.9,0l-.65-1.51H9.32L8.67,0H7.01l3.02-6.99h1.51L14.56,0ZM10.79-4.91,9.91-2.88h1.75Zm10.95.24A2.058,2.058,0,0,1,20.41-2.5L22.18,0H20.26L18.71-2.23H17.63V0H16.07V-6.99h2.65a3.8,3.8,0,0,1,2.325.55A2.122,2.122,0,0,1,21.74-4.67ZM18.77-3.58a1.677,1.677,0,0,0,1.09-.26,1.056,1.056,0,0,0,.29-.825.884.884,0,0,0-.3-.775,1.92,1.92,0,0,0-1.05-.21H17.63v2.07Zm5.27-3.41H25.6V0H24.04Zm6.23,1.21a.94.94,0,0,0-.615.185.6.6,0,0,0-.225.49.554.554,0,0,0,.275.485,5.028,5.028,0,0,0,1.27.425,3.575,3.575,0,0,1,1.545.735,1.815,1.815,0,0,1,.55,1.43A1.888,1.888,0,0,1,32.365-.5,2.811,2.811,0,0,1,30.51.08a4.293,4.293,0,0,1-2.99-1.23l.93-1.14a3.309,3.309,0,0,0,2.09.99,1.1,1.1,0,0,0,.675-.185.594.594,0,0,0,.245-.5.583.583,0,0,0-.26-.5,3.392,3.392,0,0,0-1.03-.375,4.479,4.479,0,0,1-1.785-.755,1.783,1.783,0,0,1-.565-1.46,1.81,1.81,0,0,1,.715-1.535,2.877,2.877,0,0,1,1.785-.54,4.293,4.293,0,0,1,1.4.24,3.749,3.749,0,0,1,1.22.68l-.79,1.14A3.078,3.078,0,0,0,30.27-5.78ZM43.48-6.99V-5.6H40v1.44h3.13v1.33H40v1.45h3.59V0H38.44V-6.99Zm6.13,0h1.88L49.31-3.62,51.67,0h-1.9L48.28-2.3,46.8,0H44.92l2.35-3.58L45.08-6.99h1.87l1.33,2.07Zm6.19,0a3.588,3.588,0,0,1,2.345.625,2.382,2.382,0,0,1,.735,1.92,2.275,2.275,0,0,1-.755,1.9,3.672,3.672,0,0,1-2.305.6h-.93V0H53.33V-6.99Zm.14,3.69A1.392,1.392,0,0,0,57-3.615a1.344,1.344,0,0,0,.28-.92.975.975,0,0,0-.365-.86A2.006,2.006,0,0,0,55.78-5.65h-.89V-3.3Zm10.21-.23a2.294,2.294,0,0,0-.6-1.6,1.916,1.916,0,0,0-1.475-.66,1.916,1.916,0,0,0-1.475.66,2.287,2.287,0,0,0-.6,1.6,2.269,2.269,0,0,0,.6,1.59,1.922,1.922,0,0,0,1.475.655,1.922,1.922,0,0,0,1.475-.655A2.263,2.263,0,0,0,66.15-3.53Zm.53,2.57A3.6,3.6,0,0,1,64.07.07,3.592,3.592,0,0,1,61.46-.965,3.453,3.453,0,0,1,60.4-3.54a3.453,3.453,0,0,1,1.06-2.575A3.592,3.592,0,0,1,64.07-7.15a3.592,3.592,0,0,1,2.61,1.035A3.453,3.453,0,0,1,67.74-3.54,3.469,3.469,0,0,1,66.68-.96ZM3.33,5.01a3.588,3.588,0,0,1,2.345.625,2.382,2.382,0,0,1,.735,1.92A2.275,2.275,0,0,1,5.655,9.45a3.672,3.672,0,0,1-2.305.6H2.42V12H.86V5.01ZM3.47,8.7a1.392,1.392,0,0,0,1.06-.315,1.344,1.344,0,0,0,.28-.92.975.975,0,0,0-.365-.86A2.006,2.006,0,0,0,3.31,6.35H2.42V8.7Zm10.21-.23a2.294,2.294,0,0,0-.6-1.6,1.978,1.978,0,0,0-2.95,0,2.287,2.287,0,0,0-.6,1.6,2.269,2.269,0,0,0,.6,1.59,1.988,1.988,0,0,0,2.95,0A2.263,2.263,0,0,0,13.68,8.47Zm.53,2.57a3.6,3.6,0,0,1-2.61,1.03,3.592,3.592,0,0,1-2.61-1.035A3.453,3.453,0,0,1,7.93,8.46,3.453,3.453,0,0,1,8.99,5.885,3.592,3.592,0,0,1,11.6,4.85a3.592,3.592,0,0,1,2.61,1.035A3.453,3.453,0,0,1,15.27,8.46,3.469,3.469,0,0,1,14.21,11.04Zm8.75-3.71A2.058,2.058,0,0,1,21.63,9.5L23.4,12H21.48L19.93,9.77H18.85V12H17.29V5.01h2.65a3.8,3.8,0,0,1,2.325.55A2.122,2.122,0,0,1,22.96,7.33ZM19.99,8.42a1.677,1.677,0,0,0,1.09-.26,1.056,1.056,0,0,0,.29-.825.884.884,0,0,0-.3-.775,1.92,1.92,0,0,0-1.05-.21H18.85V8.42Zm8.09-2.06V12H26.52V6.36H24.54V5.01h5.52V6.36Zm8.86-1.35V6.4H33.46V7.84h3.13V9.17H33.46v1.45h3.59V12H31.9V5.01Zm8.01,0a4.1,4.1,0,0,1,2.87.915,3.276,3.276,0,0,1,1,2.545,3.436,3.436,0,0,1-.975,2.58A4.115,4.115,0,0,1,44.87,12H42.48V5.01Zm.08,5.61a2.313,2.313,0,0,0,1.645-.54,2.05,2.05,0,0,0,.575-1.57,2.1,2.1,0,0,0-.575-1.585A2.458,2.458,0,0,0,44.91,6.37h-.87v4.25ZM55.91,5.01V6.4H52.43V7.84h3.13V9.17H52.43v1.45h3.59V12H50.87V5.01Zm8.12,4.45,1.78-4.45H67.5L64.69,12H63.37L60.56,5.01h1.69ZM74.07,5.01V6.4H70.59V7.84h3.13V9.17H70.59v1.45h3.59V12H69.03V5.01Zm7.87,2.32A2.058,2.058,0,0,1,80.61,9.5L82.38,12H80.46L78.91,9.77H77.83V12H76.27V5.01h2.65a3.8,3.8,0,0,1,2.325.55A2.122,2.122,0,0,1,81.94,7.33ZM78.97,8.42a1.677,1.677,0,0,0,1.09-.26,1.056,1.056,0,0,0,.29-.825.884.884,0,0,0-.3-.775A1.92,1.92,0,0,0,79,6.35H77.83V8.42Zm7.52-2.2a.94.94,0,0,0-.615.185.6.6,0,0,0-.225.49.554.554,0,0,0,.275.485,5.028,5.028,0,0,0,1.27.425,3.575,3.575,0,0,1,1.545.735,1.815,1.815,0,0,1,.55,1.43,1.888,1.888,0,0,1-.705,1.525,2.811,2.811,0,0,1-1.855.585,4.293,4.293,0,0,1-2.99-1.23l.93-1.14a3.309,3.309,0,0,0,2.09.99,1.1,1.1,0,0,0,.675-.185.594.594,0,0,0,.245-.5.583.583,0,0,0-.26-.5,3.392,3.392,0,0,0-1.03-.375A4.479,4.479,0,0,1,84.6,8.385a1.783,1.783,0,0,1-.565-1.46,1.81,1.81,0,0,1,.715-1.535,2.877,2.877,0,0,1,1.785-.54,4.293,4.293,0,0,1,1.4.24,3.749,3.749,0,0,1,1.22.68l-.79,1.14A3.078,3.078,0,0,0,86.49,6.22ZM96.22,12l-.65-1.51H92.64L91.99,12H90.33l3.02-6.99h1.51L97.88,12ZM94.11,7.09l-.88,2.03h1.75Zm5.28-2.08h1.56V12H99.39ZM103.37,12V5.01h1.56v5.6h2.98V12Zm6.38,0V5.01h1.56v5.6h2.98V12Zm11.42-6.99V6.4h-3.48V7.84h3.13V9.17h-3.13v1.45h3.59V12h-5.15V5.01Zm4.45,1.21a.94.94,0,0,0-.615.185.6.6,0,0,0-.225.49.554.554,0,0,0,.275.485,5.028,5.028,0,0,0,1.27.425,3.575,3.575,0,0,1,1.545.735,1.815,1.815,0,0,1,.55,1.43,1.888,1.888,0,0,1-.7,1.525,2.811,2.811,0,0,1-1.855.585,4.293,4.293,0,0,1-2.99-1.23l.93-1.14a3.309,3.309,0,0,0,2.09.99,1.1,1.1,0,0,0,.675-.185.594.594,0,0,0,.245-.5.583.583,0,0,0-.26-.5,3.392,3.392,0,0,0-1.03-.375,4.479,4.479,0,0,1-1.785-.755,1.783,1.783,0,0,1-.565-1.46,1.81,1.81,0,0,1,.715-1.535,2.877,2.877,0,0,1,1.785-.54,4.293,4.293,0,0,1,1.4.24,3.749,3.749,0,0,1,1.22.68l-.79,1.14A3.078,3.078,0,0,0,125.62,6.22Z" transform="translate(479 532.502)"/>
    <path id="Tracé_165" data-name="Tracé 165" d="M-.66-21.03H9.42V0H3.18V-16.05H-.66Zm22.74,7.59a11.112,11.112,0,0,1,4.365.8,6.594,6.594,0,0,1,2.9,2.235,5.615,5.615,0,0,1,1.02,3.33,6.925,6.925,0,0,1-1.08,3.855,7.084,7.084,0,0,1-3.06,2.58A10.914,10.914,0,0,1,21.6.27a14.714,14.714,0,0,1-4.47-.735A14.667,14.667,0,0,1,13.08-2.43l2.28-4.32a11.612,11.612,0,0,0,2.73,1.74,6.863,6.863,0,0,0,2.82.63,3.094,3.094,0,0,0,2.025-.585,2.042,2.042,0,0,0,.7-1.665q0-2.16-2.82-2.16-3.33,0-5.85.06v-12.3H29.4v4.86H20.67v2.73Zm10.77,2.31h8.19v3.78H32.85Zm9.09-9.9H52.02V0H45.78V-16.05H41.94Zm13.53,0h17.1v4.2L64.98,0H58.41l7.26-16.17H60.99v2.94H55.47Zm25.56,0H97.35v4.8H87.27v4.2h9.36v4.8H87.27V0H81.03Zm18.57,0h17.19v4.8H105.84v3.3h9.93v4.8h-9.93V-4.8h11.25V0H99.6Zm9.48-6.81,4.74,1.74-4.59,3.66-3.96-.3Zm9.15,6.81h6.66l4.8,14.55,4.8-14.55h6.39L132.75,0h-6.48ZM143.22-5.4a2.81,2.81,0,0,1,2.055.78,2.693,2.693,0,0,1,.795,2.01,2.781,2.781,0,0,1-.795,2.055,2.781,2.781,0,0,1-2.055.8,2.743,2.743,0,0,1-2.025-.8A2.781,2.781,0,0,1,140.4-2.61a2.693,2.693,0,0,1,.795-2.01A2.771,2.771,0,0,1,143.22-5.4Z" transform="translate(401.599 510.887)"/>
    <path id="Tracé_164" data-name="Tracé 164" d="M17.4-4.86V0H1.14L1.11-3.99l7.5-7.74a8.578,8.578,0,0,0,1.305-1.635,2.9,2.9,0,0,0,.495-1.425,1.289,1.289,0,0,0-.495-1.1A2.269,2.269,0,0,0,8.52-16.26a6.6,6.6,0,0,0-2.745.705A14.362,14.362,0,0,0,2.73-13.59L.39-18.09A16.081,16.081,0,0,1,9.45-21.3a9.961,9.961,0,0,1,3.855.7,6.389,6.389,0,0,1,2.67,1.965,4.623,4.623,0,0,1,.975,2.91,6.412,6.412,0,0,1-1.065,3.375A21.031,21.031,0,0,1,12.84-8.64L9.06-4.86ZM28.95-21.21a8.912,8.912,0,0,1,7.02,2.76q2.46,2.76,2.46,7.92T35.97-2.58A8.863,8.863,0,0,1,28.95.21q-4.62,0-7.065-2.775T19.44-10.53q0-5.16,2.445-7.92T28.95-21.21Zm0,4.53a2.492,2.492,0,0,0-2.4,1.395,11.211,11.211,0,0,0-.72,4.755,11.322,11.322,0,0,0,.72,4.77,2.488,2.488,0,0,0,2.4,1.41,2.434,2.434,0,0,0,2.355-1.41,11.539,11.539,0,0,0,.7-4.77,11.426,11.426,0,0,0-.7-4.755A2.437,2.437,0,0,0,28.95-16.68ZM56.82-4.86V0H40.56l-.03-3.99,7.5-7.74a8.578,8.578,0,0,0,1.305-1.635,2.9,2.9,0,0,0,.495-1.425,1.289,1.289,0,0,0-.495-1.1,2.269,2.269,0,0,0-1.4-.375,6.6,6.6,0,0,0-2.745.705A14.362,14.362,0,0,0,42.15-13.59l-2.34-4.5a16.081,16.081,0,0,1,9.06-3.21,9.961,9.961,0,0,1,3.855.7,6.389,6.389,0,0,1,2.67,1.965,4.623,4.623,0,0,1,.975,2.91,6.412,6.412,0,0,1-1.065,3.375A21.031,21.031,0,0,1,52.26-8.64L48.48-4.86Zm.33-16.17H67.23V0H60.99V-16.05H57.15Z" transform="translate(399.599 543.849)"/>
  </g>
</svg>
