<svg height="58.29" viewBox="0 0 395.79 58.29" width="395.79" xmlns="http://www.w3.org/2000/svg"><path d="m133.9-118.787c-.2 1.8-1.872 5.561-4.614 10.406-2.743-4.845-4.415-8.61-4.615-10.406a5.785 5.785 0 0 1 1.29-4.521 4.336 4.336 0 0 1 3.325-1.461 4.353 4.353 0 0 1 3.344 1.441 5.816 5.816 0 0 1 1.27 4.541m34.26-8.76a3.286 3.286 0 0 0 -4.336 1.658l-18.748 41.955-11.855-18.18c3.077-5.1 6.747-11.885 7.2-15.949a12.368 12.368 0 0 0 -2.9-9.644 10.9 10.9 0 0 0 -8.235-3.628 10.879 10.879 0 0 0 -8.216 3.649 12.344 12.344 0 0 0 -2.924 9.623c.452 4.061 4.121 10.853 7.2 15.949l-11.856 18.18-18.747-41.955a3.263 3.263 0 0 0 -1.824-1.728 3.258 3.258 0 0 0 -2.511.07 3.264 3.264 0 0 0 -1.727 1.824 3.262 3.262 0 0 0 .07 2.511l21.2 47.453a3.277 3.277 0 0 0 2.739 1.934 3.3 3.3 0 0 0 3.006-1.48l13.587-20.833 13.586 20.838a3.272 3.272 0 0 0 2.747 1.488c.086 0 .173 0 .26-.01a3.28 3.28 0 0 0 2.738-1.933l21.2-47.454a3.286 3.286 0 0 0 -1.658-4.335" transform="translate(-88.463 131.334)"/><path d="m201.069-103.151h.548a.7.7 0 0 0 .583-.377l6.238-14.019h.1l6.273 14.019a.7.7 0 0 0 .583.377h.547a.659.659 0 0 0 .618-.479l6.479-23.035a.6.6 0 0 0 -.618-.823h-4.01a.705.705 0 0 0 -.618.48l-2.948 11.62h-.137l-5.307-12.066a.58.58 0 0 0 -.582-.377h-.618a.653.653 0 0 0 -.582.377l-5.318 12.066h-.137l-2.948-11.62a.705.705 0 0 0 -.617-.48h-4.008a.6.6 0 0 0 -.618.823l6.479 23.035a.661.661 0 0 0 .618.479" transform="translate(-100.999 130.918)"/><path d="m232.986-103.447h4.114a.673.673 0 0 0 .65-.651v-22.691a.675.675 0 0 0 -.65-.653h-4.114a.675.675 0 0 0 -.65.653v22.689a.673.673 0 0 0 .65.651" transform="translate(-105.564 130.871)"/><path d="m266.168-103.151a.6.6 0 0 0 .65-.617v-23.068a.673.673 0 0 0 -.65-.652h-4.114a.65.65 0 0 0 -.65.652v12.168h-.035l-13.162-12.649c-.273-.273-.515-.514-.857-.514h-.513a.644.644 0 0 0 -.652.617l.034 23.069a.674.674 0 0 0 .652.651h4.079a.65.65 0 0 0 .651-.651v-12.785h.034l13.333 13.4a1.1 1.1 0 0 0 .858.377z" transform="translate(-107.209 130.918)"/><path d="m292.837-104.1v-3.736a.65.65 0 0 0 -.65-.651h-9.5v-4.628h7.814a.652.652 0 0 0 .652-.652v-3.733a.674.674 0 0 0 -.652-.651h-7.814v-4.25h9.5a.651.651 0 0 0 .65-.653v-3.735a.651.651 0 0 0 -.65-.652h-14.193a.651.651 0 0 0 -.651.652v22.689a.65.65 0 0 0 .651.65h14.193a.649.649 0 0 0 .65-.65" transform="translate(-110.913 130.871)"/><path d="m205.161-84.139h-3.461v-5.245h3.462a2.44 2.44 0 0 1 2.5 2.536 2.528 2.528 0 0 1 -2.5 2.709m.1-10.285h-8.262a.652.652 0 0 0 -.651.652v22.692a.652.652 0 0 0 .651.651h4.045a.675.675 0 0 0 .651-.651v-8.055h3.6a7.517 7.517 0 0 0 7.644-7.713 7.473 7.473 0 0 0 -7.678-7.576" transform="translate(-101.286 126.947)"/><path d="m222.453-78.7 2.571-5.656h.034l2.605 5.656zm3.36-15.734a.7.7 0 0 0 -.583-.377h-.343a.694.694 0 0 0 -.582.377l-10.73 23.069a.606.606 0 0 0 .584.891h3.769a1.278 1.278 0 0 0 1.235-.823l1.237-2.743h9.323l1.235 2.709c.308.651.582.856 1.2.856h3.8a.605.605 0 0 0 .583-.891z" transform="translate(-103.326 126.993)"/><path d="m252.344-84.174h-5.074v-5.348h5.074a2.519 2.519 0 0 1 2.6 2.606 2.636 2.636 0 0 1 -2.6 2.742m7.918-2.844a7.3 7.3 0 0 0 -7.472-7.4h-10.25a.651.651 0 0 0 -.652.651v22.687a.651.651 0 0 0 .652.651h4.08a.673.673 0 0 0 .65-.651v-8.741h2.365l4.56 9.084a.629.629 0 0 0 .548.308h4.557a.649.649 0 0 0 .582-.995l-4.7-8.707a7.244 7.244 0 0 0 5.073-6.889" transform="translate(-106.699 126.947)"/><path d="m272.405-94.424h-4.114a.674.674 0 0 0 -.65.652v22.692a.674.674 0 0 0 .65.651h4.114a.674.674 0 0 0 .65-.651v-22.692a.674.674 0 0 0 -.65-.652" transform="translate(-109.76 126.947)"/><path d="m287.755-85.043c-2.4-1.166-3.737-2.057-3.737-3.188a1.86 1.86 0 0 1 2.091-1.886 9.334 9.334 0 0 1 4.627 1.851 1.058 1.058 0 0 0 1.508-.24l1.75-2.64a.869.869 0 0 0 -.207-1.1 12.741 12.741 0 0 0 -7.335-2.57c-5.279 0-7.919 3.427-7.919 6.821 0 4.113 3.326 5.964 6.651 7.575 2.262 1.1 3.531 2.023 3.531 3.461a2.148 2.148 0 0 1 -2.365 2.059 8.788 8.788 0 0 1 -4.868-1.885.806.806 0 0 0 -1.165.205l-1.578 2.78a.772.772 0 0 0 .137 1.029c.79.788 3.258 2.639 7.713 2.639 5.039 0 8.09-3.565 8.09-7.1 0-4.661-3.908-6.341-6.923-7.815" transform="translate(-111.055 126.993)"/><path d="m321.062-74.365h-1.883a.485.485 0 0 1 -.485-.486v-52.211a.484.484 0 0 1 .485-.485h1.883a.485.485 0 0 1 .486.485v52.212a.485.485 0 0 1 -.486.486" fill="#ff4527" transform="translate(-115.828 130.884)"/><path d="m377.989-117.9v-4.677s0-5.445-5.443-5.445h-26.437v6.088a12.578 12.578 0 0 1 2.567-1.208c6.248-2.078 14.549-.7 20.732 12.251 1.6 3.343 1.366 2.9 3.042 6.572zm-31.88-2.663v18.749s0 5.444 5.445 5.444h16.939c-5.638-12.956-10.458-27.252-20.348-24.956a9.433 9.433 0 0 0 -2.036.763m26.24 24.193h5.639v-13.66z" fill="#ff4527" transform="translate(-119.087 130.94)"/><path d="m420.354-117.8v12.986l-10.115-12.986h-5.812v22.244h5.812v-13.063l10.116 13.063h5.814v-22.244z" transform="translate(-126.019 129.725)"/><path d="m523.128-118.04a11.432 11.432 0 0 0 -11.428 11.432 11.431 11.431 0 0 0 11.428 11.428 11.428 11.428 0 0 0 11.43-11.428 11.43 11.43 0 0 0 -11.43-11.432m0 17.775a6.343 6.343 0 0 1 -6.343-6.343 6.343 6.343 0 0 1 6.343-6.344 6.345 6.345 0 0 1 6.343 6.344 6.344 6.344 0 0 1 -6.343 6.343" transform="translate(-138.769 129.754)"/><path d="m499.974-117.786h-10.6v22.235h5.781v-7.342h4.817a7.437 7.437 0 0 0 7.437-7.437 7.454 7.454 0 0 0 -7.437-7.456m-.514 10.009h-4.3v-5.23h4.3a2.613 2.613 0 0 1 2.617 2.613 2.617 2.617 0 0 1 -2.617 2.617" transform="translate(-136.116 129.724)"/><path d="m390.4-95.553h5.095a1.014 1.014 0 0 0 1.035-1.034v-21.213h-5.1a1.013 1.013 0 0 0 -1.034 1.034z" transform="translate(-124.351 129.725)"/><path d="m436.044-117.8v22.244h15.756v-4.98h-9.849v-3.764h9.413v-4.758h-9.413v-3.859h9.849v-4.883z" transform="translate(-129.777 129.725)"/><path d="m475.577-117.8-5.243 6.717-5.244-6.717h-6.877l8.639 11.177-8.639 11.067h7.049l5.073-6.563 5.071 6.563h7.049l-8.639-11.067 8.639-11.177z" transform="translate(-132.412 129.725)"/><path d="m468.083-66.753c2.251 0 3.87-1.264 3.87-3.206v-.032c0-1.732-1.166-2.655-3.691-3.206-2.494-.535-3.077-1.133-3.077-2.2v-.032c0-1.02.94-1.83 2.413-1.83a4.978 4.978 0 0 1 3.271 1.231l.745-.988a5.913 5.913 0 0 0 -3.983-1.392c-2.154 0-3.724 1.311-3.724 3.092v.033c0 1.862 1.2 2.7 3.8 3.27 2.38.5 2.947 1.1 2.947 2.154v.033c0 1.117-1 1.927-2.525 1.927a5.4 5.4 0 0 1 -3.886-1.6l-.793.938a6.632 6.632 0 0 0 4.63 1.813m-10.1-.162h1.279v-11.339h-1.279zm-12.158-5.553v-4.6h3.5c1.83 0 2.9.841 2.9 2.234v.033c0 1.457-1.214 2.331-2.914 2.331zm-1.279 5.553h1.279v-4.4h3.237l3.288 4.4h1.57l-3.481-4.63a3.316 3.316 0 0 0 3.075-3.3v-.032a3.132 3.132 0 0 0 -.874-2.235 4.47 4.47 0 0 0 -3.222-1.133h-4.873zm-12.223-4.161 2.59-5.764 2.575 5.764zm-3.157 4.161h1.312l1.344-2.995h6.168l1.327 2.995h1.377l-5.165-11.42h-1.2zm-9.05-5.164v-4.986h2.865c1.829 0 3.044.841 3.044 2.461v.032c0 1.489-1.23 2.494-3.109 2.494zm-1.279 5.164h1.279v-4h2.753c2.413 0 4.451-1.263 4.451-3.708v-.032c0-2.235-1.683-3.6-4.241-3.6h-4.243z" fill="#ff4527" transform="translate(-127.731 125.044)"/></svg>